<?xml version="1.0" standalone="no"?>
<!DOCTYPE svg PUBLIC "-//W3C//DTD SVG 20010904//EN"
 "http://www.w3.org/TR/2001/REC-SVG-20010904/DTD/svg10.dtd">
<svg version="1.0" xmlns="http://www.w3.org/2000/svg"
 width="260.000000pt" height="260.000000pt" viewBox="0 0 260.000000 260.000000"
 preserveAspectRatio="xMidYMid meet">
<metadata>
Created by potrace 1.11, written by Peter Selinger 2001-2013
</metadata>
<g transform="translate(0.000000,260.000000) scale(0.100000,-0.100000)"
fill="#000000" stroke="none">
<path d="M885 2108 c-28 -17 -48 -40 -70 -82 -26 -53 -30 -69 -29 -140 2 -133
58 -247 150 -306 67 -42 114 -47 172 -18 78 38 112 108 112 229 0 222 -189
401 -335 317z"/>
<path d="M1585 2112 c-55 -26 -129 -111 -156 -180 -26 -68 -31 -195 -10 -256
7 -21 29 -56 48 -77 69 -76 163 -73 253 8 70 63 110 148 117 249 8 117 -21
197 -89 247 -38 28 -113 32 -163 9z"/>
<path d="M470 1638 c-35 -18 -51 -35 -72 -77 -48 -95 -31 -203 47 -289 55 -61
114 -87 180 -80 166 19 210 257 73 397 -68 70 -151 88 -228 49z"/>
<path d="M2011 1646 c-92 -33 -164 -142 -165 -250 -1 -114 60 -192 160 -204
88 -10 193 68 231 171 6 18 12 60 12 95 2 148 -108 235 -238 188z"/>
<path d="M1205 1406 c-278 -88 -595 -468 -595 -712 0 -30 6 -69 14 -87 18 -44
77 -93 128 -109 56 -16 200 -14 263 5 28 8 91 26 140 41 132 39 197 37 365
-15 115 -35 149 -42 230 -43 87 -1 100 2 155 29 69 34 101 75 111 141 13 90
-36 231 -128 366 -106 157 -313 331 -448 377 -72 24 -172 27 -235 7z"/>
</g>
</svg>
